<svg width="61" height="88" viewBox="0 0 61 88" fill="none" xmlns="http://www.w3.org/2000/svg">
<g id="Group 73">
<path id="Union" fill-rule="evenodd" clip-rule="evenodd" d="M0.0957031 30.6383C0.0957031 13.8436 13.6202 0.260254 30.3423 0.260254C47.0643 0.260254 60.5889 13.8436 60.5889 30.6383C60.5889 53.4219 30.3423 87.0548 30.3423 87.0548C30.3423 87.0548 0.0957031 53.4219 0.0957031 30.6383Z" fill="#258FFF"/>
<path id="Ellipse 15" d="M49.0663 30.6385C49.0663 41.0245 40.6833 49.444 30.3422 49.444C20.0012 49.444 11.6182 41.0245 11.6182 30.6385C11.6182 20.2525 20.0012 11.833 30.3422 11.833C40.6833 11.833 49.0663 20.2525 49.0663 30.6385Z" fill="white"/>
<g id="Vector">
<path id="Vector_2" d="M36.7442 27.9059V17.6191H23.9414V22.7625H18.8203V40.7643H29.0625V35.621H31.6231V40.7643H41.8653V27.9059H36.7442ZM23.9414 38.1927H21.3809V35.621H23.9414V38.1927ZM23.9414 33.0493H21.3809V30.4776H23.9414V33.0493ZM23.9414 27.9059H21.3809V25.3342H23.9414V27.9059ZM29.0625 33.0493H26.502V30.4776H29.0625V33.0493ZM29.0625 27.9059H26.502V25.3342H29.0625V27.9059ZM29.0625 22.7625H26.502V20.1908H29.0625V22.7625ZM34.1837 33.0493H31.6231V30.4776H34.1837V33.0493ZM34.1837 27.9059H31.6231V25.3342H34.1837V27.9059ZM34.1837 22.7625H31.6231V20.1908H34.1837V22.7625ZM39.3048 38.1927H36.7442V35.621H39.3048V38.1927ZM39.3048 33.0493H36.7442V30.4776H39.3048V33.0493Z" fill="#258FFF"/>
</g>
</g>
</svg>
