<svg width="87" height="54" viewBox="0 0 87 54" fill="none" xmlns="http://www.w3.org/2000/svg">
<path d="M74.4795 35.5581H80.6258V38.9907H80.8273C81.1519 37.7568 81.6725 36.8369 82.389 36.2311C83.1055 35.6254 83.9732 35.3225 84.9919 35.3225C85.5853 35.3225 86.1339 35.3898 86.6377 35.5244V41.0099C86.3466 40.8977 85.9715 40.8136 85.5125 40.7575C85.0535 40.7014 84.6337 40.6734 84.2531 40.6734C83.5925 40.6734 83.0048 40.8248 82.4898 41.1277C81.9748 41.4193 81.5662 41.8344 81.2639 42.3729C80.9728 42.9001 80.8273 43.5115 80.8273 44.2069V53.8318H74.4795V35.5581Z" fill="#76B8FF"/>
<path d="M63.3885 54.0001C61.4629 54.0001 59.7892 53.6075 58.3674 52.8222C56.9567 52.037 55.8708 50.9376 55.1095 49.5242C54.3594 48.0996 53.9844 46.4505 53.9844 44.5772C53.9844 42.7038 54.3594 41.0604 55.1095 39.647C55.8708 38.2223 56.9567 37.1174 58.3674 36.3322C59.7892 35.5469 61.4629 35.1543 63.3885 35.1543C65.3141 35.1543 66.9822 35.5469 68.3928 36.3322C69.8034 37.1174 70.8838 38.2223 71.6339 39.647C72.384 41.0604 72.759 42.7038 72.759 44.5772C72.759 46.4505 72.384 48.0996 71.6339 49.5242C70.8838 50.9376 69.8034 52.037 68.3928 52.8222C66.9822 53.6075 65.3141 54.0001 63.3885 54.0001ZM63.4221 49.2886C64.3065 49.2886 65.0006 48.8624 65.5044 48.0098C66.0194 47.1573 66.2769 46.0018 66.2769 44.5435C66.2769 43.074 66.0194 41.9186 65.5044 41.0773C65.0006 40.2247 64.3065 39.7984 63.4221 39.7984C62.5041 39.7984 61.782 40.2247 61.2558 41.0773C60.7296 41.9186 60.4665 43.074 60.4665 44.5435C60.4665 46.0018 60.7296 47.1573 61.2558 48.0098C61.782 48.8624 62.5041 49.2886 63.4221 49.2886Z" fill="#76B8FF"/>
<path d="M52.8895 40H49.6988V47.8076C49.6988 48.2787 49.8276 48.604 50.085 48.7835C50.3425 48.963 50.7512 49.0528 51.3109 49.0528C51.9491 49.0528 52.5536 49.0191 53.1246 48.9518V53.6969C52.1842 53.8539 51.1766 53.9325 50.1018 53.9325C47.8516 53.9325 46.1611 53.4894 45.0303 52.6032C43.8996 51.7057 43.3398 50.3204 43.351 48.447V40H41V35.3896H43.351V31.0146H49.6988V35.3896H52.8895V40Z" fill="#76B8FF"/>
<path d="M21.6562 47.9222C21.6562 46.0264 22.2664 44.613 23.4867 43.6819C24.707 42.7508 26.3359 42.2236 28.3735 42.1002L32.6389 41.9319V40.4512C32.6389 39.9576 32.4486 39.5706 32.0679 39.2902C31.6873 39.0097 31.1835 38.8695 30.5566 38.8695C29.896 38.8695 29.3643 39.0153 28.9612 39.307C28.5582 39.5987 28.3175 40.0249 28.2391 40.5858H22.3616C22.4399 39.4416 22.7982 38.4096 23.4363 37.4897C24.0856 36.5587 25.0205 35.8239 26.2408 35.2854C27.4611 34.7358 28.9332 34.4609 30.6573 34.4609C32.3254 34.4609 33.7864 34.7189 35.0403 35.235C36.3054 35.7398 37.2794 36.4521 37.9623 37.3719C38.6452 38.2806 38.9867 39.3182 38.9867 40.4849V52.9702H33.0419V50.4125H32.9076C31.8776 52.3196 30.1088 53.2731 27.601 53.2731C25.7873 53.2731 24.3431 52.8244 23.2684 51.9269C22.1936 51.0183 21.6562 49.6834 21.6562 47.9222ZM27.6346 47.552C27.6346 48.0793 27.8193 48.4887 28.1887 48.7804C28.5582 49.0608 29.0452 49.201 29.6497 49.201C30.1871 49.201 30.6853 49.0945 31.1443 48.8813C31.6145 48.657 31.9896 48.3373 32.2695 47.9222C32.5493 47.5072 32.6837 47.0248 32.6725 46.4751V45.4992C31.3402 45.5328 30.2879 45.5889 29.5154 45.6674C28.9444 45.7348 28.4854 45.9423 28.1384 46.29C27.8025 46.6378 27.6346 47.0584 27.6346 47.552Z" fill="#76B8FF"/>
<path d="M31.221 24.6005C29.8776 24.6005 28.6573 24.2527 27.5601 23.5572C26.4742 22.8505 25.6065 21.796 24.9572 20.3938C24.3191 18.9804 24 17.2641 24 15.2449C24 13.1472 24.3303 11.3972 24.9908 9.99499C25.6513 8.58156 26.5246 7.53831 27.6105 6.86525C28.6965 6.19218 29.8776 5.85565 31.1538 5.85565C32.4525 5.85565 33.5385 6.17536 34.4117 6.81477C35.2849 7.45418 35.9119 8.26746 36.2925 9.25462H36.3933V0H42.7411V24.3649H36.4605V21.3698H36.2925C35.9007 22.3345 35.2681 23.1141 34.3949 23.7087C33.5329 24.3032 32.4749 24.6005 31.221 24.6005ZM33.5049 19.7208C34.4565 19.7208 35.201 19.3169 35.7383 18.5092C36.2869 17.7016 36.5612 16.6022 36.5612 15.2112C36.5612 13.8315 36.2869 12.7489 35.7383 11.9637C35.201 11.1672 34.4565 10.769 33.5049 10.769C32.5645 10.769 31.8368 11.1616 31.3218 11.9469C30.8068 12.7321 30.5493 13.8202 30.5493 15.2112C30.5493 16.6135 30.8068 17.7184 31.3218 18.5261C31.848 19.3225 32.5757 19.7208 33.5049 19.7208Z" fill="#76B8FF"/>
<path fill-rule="evenodd" clip-rule="evenodd" d="M23.2846 22.4506L11.6422 2.24512L-0.000240684 22.4506H6.46776L11.6422 13.4704L16.8166 22.4506H23.2846Z" fill="#258FFF"/>
<path fill-rule="evenodd" clip-rule="evenodd" d="M0.000591134 31.4307L11.643 51.6362L23.2854 31.4307L16.8174 31.4307L11.643 40.411L6.46859 31.4307L0.000591134 31.4307Z" fill="#258FFF"/>
</svg>
