<svg width="72" height="72" viewBox="0 0 72 72" fill="none" xmlns="http://www.w3.org/2000/svg">
<g id="Marker">
<g id="Union">
<mask id="path-1-inside-1_40000020_29311" fill="white">
<path fill-rule="evenodd" clip-rule="evenodd" d="M15 27C15 15.39 24.39 6 36 6C47.61 6 57 15.39 57 27C57 42.75 36 66 36 66C36 66 15 42.75 15 27Z"/>
</mask>
<path fill-rule="evenodd" clip-rule="evenodd" d="M15 27C15 15.39 24.39 6 36 6C47.61 6 57 15.39 57 27C57 42.75 36 66 36 66C36 66 15 42.75 15 27Z" fill="white"/>
<path d="M36 66L34.5158 67.3406L36 68.9838L37.4842 67.3406L36 66ZM36 4C23.2854 4 13 14.2854 13 27H17C17 16.4946 25.4946 8 36 8V4ZM59 27C59 14.2854 48.7146 4 36 4V8C46.5054 8 55 16.4946 55 27H59ZM36 66C37.4842 67.3406 37.4845 67.3402 37.4849 67.3398C37.4851 67.3396 37.4856 67.339 37.486 67.3385C37.487 67.3375 37.4882 67.3361 37.4898 67.3344C37.4929 67.3309 37.4973 67.326 37.503 67.3197C37.5143 67.3071 37.5306 67.289 37.5517 67.2654C37.5939 67.2181 37.6553 67.1491 37.7348 67.0591C37.8938 66.8791 38.1248 66.6155 38.4176 66.2756C39.003 65.5961 39.836 64.6113 40.8342 63.3814C42.8287 60.9239 45.4913 57.4771 48.1579 53.5249C50.8207 49.5783 53.5121 45.0913 55.544 40.556C57.564 36.0469 59 31.3422 59 27H55C55 30.5328 53.811 34.6407 51.8935 38.9206C49.9879 43.1743 47.4293 47.453 44.8421 51.2876C42.2587 55.1166 39.6713 58.4667 37.7283 60.8608C36.7577 62.0567 35.9501 63.0113 35.3871 63.6648C35.1057 63.9915 34.8855 64.2427 34.7369 64.411C34.6625 64.4952 34.6061 64.5586 34.5688 64.6003C34.5502 64.6211 34.5363 64.6366 34.5274 64.6465C34.523 64.6514 34.5198 64.655 34.5178 64.6572C34.5169 64.6582 34.5162 64.659 34.5159 64.6593C34.5157 64.6595 34.5157 64.6596 34.5156 64.6596C34.5157 64.6596 34.5158 64.6594 36 66ZM13 27C13 31.3422 14.436 36.0469 16.456 40.556C18.4879 45.0913 21.1793 49.5783 23.8421 53.5249C26.5087 57.4771 29.1713 60.9239 31.1658 63.3814C32.164 64.6113 32.997 65.5961 33.5824 66.2756C33.8752 66.6155 34.1062 66.8791 34.2652 67.0591C34.3447 67.1491 34.4061 67.2181 34.4483 67.2654C34.4694 67.289 34.4857 67.3071 34.497 67.3197C34.5027 67.326 34.5071 67.3309 34.5102 67.3344C34.5118 67.3361 34.513 67.3375 34.514 67.3385C34.5144 67.339 34.5149 67.3396 34.5151 67.3398C34.5155 67.3402 34.5158 67.3406 36 66C37.4842 64.6594 37.4843 64.6596 37.4844 64.6596C37.4843 64.6596 37.4843 64.6595 37.4841 64.6593C37.4838 64.659 37.4831 64.6582 37.4822 64.6572C37.4802 64.655 37.477 64.6514 37.4726 64.6465C37.4637 64.6366 37.4498 64.6211 37.4312 64.6003C37.3939 64.5586 37.3375 64.4952 37.2631 64.411C37.1145 64.2427 36.8943 63.9915 36.6129 63.6648C36.0499 63.0113 35.2423 62.0567 34.2717 60.8608C32.3287 58.4667 29.7413 55.1166 27.1579 51.2876C24.5707 47.453 22.0121 43.1743 20.1065 38.9206C18.189 34.6407 17 30.5328 17 27H13Z" fill="#258FFF" mask="url(#path-1-inside-1_40000020_29311)"/>
</g>
<path id="Ellipse 16" d="M45 27C45 31.9706 40.9706 36 36 36C31.0294 36 27 31.9706 27 27C27 22.0294 31.0294 18 36 18C40.9706 18 45 22.0294 45 27Z" fill="#258FFF"/>
</g>
</svg>
